<mxfile host="app.diagrams.net" modified="2024-04-16T00:22:27.681Z" agent="Mozilla/5.0 (X11; Linux x86_64; rv:124.0) Gecko/20100101 Firefox/124.0" etag="gZaxEh2KcZoEcBtz0Gdt" version="24.2.5" type="github">
  <diagram name="Page-1" id="4JWCHRUsRrED4QPd5rLw">
    <mxGraphModel dx="683" dy="363" grid="1" gridSize="10" guides="1" tooltips="1" connect="1" arrows="1" fold="1" page="1" pageScale="1" pageWidth="850" pageHeight="1100" math="0" shadow="0">
      <root>
        <mxCell id="0" />
        <mxCell id="1" parent="0" />
        <mxCell id="yw3hiltrp7tI4SS7x07T-3" value="ConfigurationManager" style="swimlane;fontStyle=0;childLayout=stackLayout;horizontal=1;startSize=30;horizontalStack=0;resizeParent=1;resizeParentMax=0;resizeLast=0;collapsible=1;marginBottom=0;whiteSpace=wrap;html=1;" vertex="1" parent="1">
          <mxGeometry x="320" y="120" width="240" height="120" as="geometry">
            <mxRectangle x="320" y="120" width="160" height="30" as="alternateBounds" />
          </mxGeometry>
        </mxCell>
        <mxCell id="yw3hiltrp7tI4SS7x07T-8" style="edgeStyle=orthogonalEdgeStyle;rounded=0;orthogonalLoop=1;jettySize=auto;html=1;exitX=1;exitY=0.5;exitDx=0;exitDy=0;entryX=1.009;entryY=0.098;entryDx=0;entryDy=0;entryPerimeter=0;" edge="1" parent="yw3hiltrp7tI4SS7x07T-3" source="yw3hiltrp7tI4SS7x07T-4" target="yw3hiltrp7tI4SS7x07T-3">
          <mxGeometry relative="1" as="geometry">
            <mxPoint x="280" y="9.999999999999943" as="targetPoint" />
            <Array as="points">
              <mxPoint x="280" y="45" />
              <mxPoint x="280" y="12" />
            </Array>
          </mxGeometry>
        </mxCell>
        <mxCell id="yw3hiltrp7tI4SS7x07T-4" value="- instance: ConfigurationManager" style="text;strokeColor=none;fillColor=none;align=left;verticalAlign=middle;spacingLeft=4;spacingRight=4;overflow=hidden;points=[[0,0.5],[1,0.5]];portConstraint=eastwest;rotatable=0;whiteSpace=wrap;html=1;" vertex="1" parent="yw3hiltrp7tI4SS7x07T-3">
          <mxGeometry y="30" width="240" height="30" as="geometry" />
        </mxCell>
        <mxCell id="yw3hiltrp7tI4SS7x07T-5" value="+ ConfigurationManager" style="text;strokeColor=none;fillColor=none;align=left;verticalAlign=middle;spacingLeft=4;spacingRight=4;overflow=hidden;points=[[0,0.5],[1,0.5]];portConstraint=eastwest;rotatable=0;whiteSpace=wrap;html=1;" vertex="1" parent="yw3hiltrp7tI4SS7x07T-3">
          <mxGeometry y="60" width="240" height="30" as="geometry" />
        </mxCell>
        <mxCell id="yw3hiltrp7tI4SS7x07T-6" value="+ getInstance(): ConfigurationManager" style="text;strokeColor=none;fillColor=none;align=left;verticalAlign=middle;spacingLeft=4;spacingRight=4;overflow=hidden;points=[[0,0.5],[1,0.5]];portConstraint=eastwest;rotatable=0;whiteSpace=wrap;html=1;" vertex="1" parent="yw3hiltrp7tI4SS7x07T-3">
          <mxGeometry y="90" width="240" height="30" as="geometry" />
        </mxCell>
        <mxCell id="yw3hiltrp7tI4SS7x07T-7" value="" style="endArrow=none;html=1;rounded=0;exitX=0.001;exitY=-0.005;exitDx=0;exitDy=0;exitPerimeter=0;entryX=1.001;entryY=1.027;entryDx=0;entryDy=0;entryPerimeter=0;" edge="1" parent="yw3hiltrp7tI4SS7x07T-3" source="yw3hiltrp7tI4SS7x07T-5" target="yw3hiltrp7tI4SS7x07T-4">
          <mxGeometry width="50" height="50" relative="1" as="geometry">
            <mxPoint x="60" y="110" as="sourcePoint" />
            <mxPoint x="110" y="60" as="targetPoint" />
          </mxGeometry>
        </mxCell>
        <mxCell id="yw3hiltrp7tI4SS7x07T-10" style="edgeStyle=orthogonalEdgeStyle;rounded=0;orthogonalLoop=1;jettySize=auto;html=1;" edge="1" parent="1" source="yw3hiltrp7tI4SS7x07T-9" target="yw3hiltrp7tI4SS7x07T-6">
          <mxGeometry relative="1" as="geometry" />
        </mxCell>
        <mxCell id="yw3hiltrp7tI4SS7x07T-9" value="Client" style="text;html=1;align=center;verticalAlign=middle;whiteSpace=wrap;rounded=0;strokeColor=default;" vertex="1" parent="1">
          <mxGeometry x="160" y="210" width="60" height="30" as="geometry" />
        </mxCell>
      </root>
    </mxGraphModel>
  </diagram>
</mxfile>
